<mxfile host="65bd71144e">
    <diagram id="fGA5w5dOOwxSOzqD_f5E" name="Page-1">
        <mxGraphModel dx="690" dy="575" grid="1" gridSize="10" guides="1" tooltips="1" connect="1" arrows="1" fold="1" page="1" pageScale="1" pageWidth="800" pageHeight="800" math="0" shadow="0">
            <root>
                <mxCell id="0"/>
                <mxCell id="1" parent="0"/>
                <mxCell id="2" value="" style="curved=1;endArrow=classic;html=1;strokeWidth=2;" edge="1" parent="1">
                    <mxGeometry width="50" height="50" relative="1" as="geometry">
                        <mxPoint x="330" y="320" as="sourcePoint"/>
                        <mxPoint x="380" y="320" as="targetPoint"/>
                        <Array as="points">
                            <mxPoint x="280" y="300"/>
                            <mxPoint x="250" y="240"/>
                            <mxPoint x="280" y="170"/>
                            <mxPoint x="350" y="140"/>
                            <mxPoint x="430" y="170"/>
                            <mxPoint x="450" y="240"/>
                            <mxPoint x="420" y="300"/>
                        </Array>
                    </mxGeometry>
                </mxCell>
            </root>
        </mxGraphModel>
    </diagram>
</mxfile>